
<svg stroke-width="0" width="135" height="40">
<g transform="matrix(1.25,0,0,-1.25,-9.4247625,49.85025)">
<g transform="matrix(1.0023923,0,0,0.99072975,-0.29664807,0)">
<path d="M 112,8 12,8 C 9.801,8 8,9.801 8,12 l 0,24 c 0,2.199 1.801,4 4,4 l 100,0 c 2.199,0 4,-1.801 4,-4 l 0,-24 c 0,-2.199 -1.801,-4 -4,-4 z">
</path>
<path d="m 112,39.359 c 1.852,0 3.359,-1.507 3.359,-3.359 l 0,-24 c 0,-1.852 -1.507,-3.359 -3.359,-3.359 l -100,0 c -1.852,0 -3.359,1.507 -3.359,3.359 l 0,24 c 0,1.852 1.507,3.359 3.359,3.359 l 100,0 M 112,40 12,40 C 9.801,40 8,38.199 8,36 L 8,12 C 8,9.801 9.801,8 12,8 l 100,0 c 2.199,0 4,1.801 4,4 l 0,24 c 0,2.199 -1.801,4 -4,4 z"></path>
<g transform="matrix(1,0,0,-1,0,48)">
<path d="m 45.934,16.195 c 0,0.668 -0.2,1.203 -0.594,1.602 -0.453,0.473 -1.043,0.711 -1.766,0.711 -0.691,0 -1.281,-0.242 -1.765,-0.719 -0.485,-0.484 -0.727,-1.078 -0.727,-1.789 0,-0.711 0.242,-1.305 0.727,-1.785 0.484,-0.481 1.074,-0.723 1.765,-0.723 0.344,0 0.672,0.071 0.985,0.203 0.312,0.133 0.566,0.313 0.75,0.535 l -0.418,0.422 c -0.321,-0.379 -0.758,-0.566 -1.317,-0.566 -0.504,0 -0.941,0.176 -1.312,0.531 -0.367,0.356 -0.551,0.817 -0.551,1.383 0,0.566 0.184,1.031 0.551,1.387 0.371,0.351 0.808,0.531 1.312,0.531 0.535,0 0.985,-0.18 1.34,-0.535 0.234,-0.235 0.367,-0.559 0.402,-0.973 l -1.742,0 0,-0.578 2.324,0 c 0.028,0.125 0.036,0.246 0.036,0.363 z" fill="#ffffff">
</path>
</g>
<g transform="matrix(1,0,0,-1,0,48)">
<path d="m 49.621,14.191 -2.183,0 0,1.52 1.968,0 0,0.578 -1.968,0 0,1.52 2.183,0 0,0.589 -2.801,0 0,-4.796 2.801,0 0,0.589 z" fill="#ffffff">
</path>
</g>
<g transform="matrix(1,0,0,-1,0,48)">
<path d="m 52.223,18.398 -0.618,0 0,-4.207 -1.339,0 0,-0.589 3.297,0 0,0.589 -1.34,0 0,4.207 z" fill="#ffffff">
</path>
</g>
<g transform="matrix(1,0,0,-1,0,48)">
<path d="m 55.949,18.398 0,-4.796 0.617,0 0,4.796 -0.617,0 z" fill="#ffffff">
</path>
</g>
<g transform="matrix(1,0,0,-1,0,48)">
<path d="m 59.301,18.398 -0.613,0 0,-4.207 -1.344,0 0,-0.589 3.301,0 0,0.589 -1.344,0 0,4.207 z" fill="#ffffff">
</path>
</g>
<g transform="matrix(1,0,0,-1,0,48)">
<path d="m 66.887,17.781 c -0.473,0.485 -1.059,0.727 -1.758,0.727 -0.703,0 -1.289,-0.242 -1.762,-0.727 C 62.895,17.297 62.66,16.703 62.66,16 c 0,-0.703 0.235,-1.297 0.707,-1.781 0.473,-0.485 1.059,-0.727 1.762,-0.727 0.695,0 1.281,0.242 1.754,0.731 0.476,0.488 0.711,1.078 0.711,1.777 0,0.703 -0.235,1.297 -0.707,1.781 z m -3.063,-0.402 c 0.356,0.359 0.789,0.539 1.305,0.539 0.512,0 0.949,-0.18 1.301,-0.539 0.355,-0.359 0.535,-0.82 0.535,-1.379 0,-0.559 -0.18,-1.02 -0.535,-1.379 -0.352,-0.359 -0.789,-0.539 -1.301,-0.539 -0.516,0 -0.949,0.18 -1.305,0.539 -0.355,0.359 -0.535,0.82 -0.535,1.379 0,0.559 0.18,1.02 0.535,1.379 z" fill="#ffffff"></path></g><g transform="matrix(1,0,0,-1,0,48)"><path d="m 68.461,18.398 0,-4.796 0.75,0 2.332,3.73 0.027,0 -0.027,-0.922 0,-2.808 0.617,0 0,4.796 -0.644,0 -2.442,-3.914 -0.027,0 0.027,0.926 0,2.988 -0.613,0 z" fill="#ffffff"></path></g><path d="m 62.508,22.598 c -1.879,0 -3.414,-1.43 -3.414,-3.403 0,-1.957 1.535,-3.402 3.414,-3.402 1.883,0 3.418,1.445 3.418,3.402 0,1.973 -1.535,3.403 -3.418,3.403 z m 0,-5.465 c -1.031,0 -1.918,0.851 -1.918,2.062 0,1.227 0.887,2.063 1.918,2.063 1.031,0 1.922,-0.836 1.922,-2.063 0,-1.211 -0.891,-2.062 -1.922,-2.062 z m -7.449,5.465 c -1.883,0 -3.414,-1.43 -3.414,-3.403 0,-1.957 1.531,-3.402 3.414,-3.402 1.882,0 3.414,1.445 3.414,3.402 0,1.973 -1.532,3.403 -3.414,3.403 z m 0,-5.465 c -1.032,0 -1.922,0.851 -1.922,2.062 0,1.227 0.89,2.063 1.922,2.063 1.031,0 1.918,-0.836 1.918,-2.063 0,-1.211 -0.887,-2.062 -1.918,-2.062 z m -8.864,4.422 0,-1.446 3.453,0 c -0.101,-0.808 -0.371,-1.402 -0.785,-1.816 -0.504,-0.5 -1.289,-1.055 -2.668,-1.055 -2.125,0 -3.789,1.715 -3.789,3.84 0,2.125 1.664,3.84 3.789,3.84 1.149,0 1.985,-0.449 2.602,-1.031 l 1.019,1.019 c -0.863,0.824 -2.011,1.457 -3.621,1.457 -2.914,0 -5.363,-2.371 -5.363,-5.285 0,-2.914 2.449,-5.285 5.363,-5.285 1.575,0 2.758,0.516 3.688,1.484 0.953,0.953 1.25,2.293 1.25,3.375 0,0.336 -0.028,0.645 -0.078,0.903 l -4.86,0 z m 36.246,-1.121 c -0.281,0.761 -1.148,2.164 -2.914,2.164 -1.75,0 -3.207,-1.379 -3.207,-3.403 0,-1.906 1.442,-3.402 3.375,-3.402 1.563,0 2.465,0.953 2.836,1.508 l -1.16,0.773 c -0.387,-0.566 -0.914,-0.941 -1.676,-0.941 -0.757,0 -1.3,0.347 -1.648,1.031 l 4.551,1.883 -0.157,0.387 z m -4.64,-1.133 c -0.039,1.312 1.019,1.984 1.777,1.984 0.594,0 1.098,-0.297 1.266,-0.722 L 77.801,19.301 Z M 74.102,16 l 1.496,0 0,10 -1.496,0 0,-10 z m -2.45,5.84 -0.05,0 c -0.336,0.398 -0.977,0.758 -1.789,0.758 -1.704,0 -3.262,-1.496 -3.262,-3.414 0,-1.907 1.558,-3.391 3.262,-3.391 0.812,0 1.453,0.363 1.789,0.773 l 0.05,0 0,-0.488 c 0,-1.301 -0.695,-2 -1.816,-2 -0.914,0 -1.481,0.66 -1.715,1.215 L 66.82,14.75 c 0.375,-0.902 1.368,-2.012 3.016,-2.012 1.754,0 3.234,1.032 3.234,3.543 l 0,6.11 -1.418,0 0,-0.551 z m -1.711,-4.707 c -1.031,0 -1.894,0.863 -1.894,2.051 0,1.199 0.863,2.074 1.894,2.074 1.016,0 1.817,-0.875 1.817,-2.074 0,-1.188 -0.801,-2.051 -1.817,-2.051 z M 89.445,26 l -3.578,0 0,-10 1.492,0 0,3.789 2.086,0 c 1.657,0 3.282,1.199 3.282,3.106 0,1.906 -1.629,3.105 -3.282,3.105 z m 0.039,-4.82 -2.125,0 0,3.429 2.125,0 c 1.114,0 1.75,-0.925 1.75,-1.714 0,-0.774 -0.636,-1.715 -1.75,-1.715 z m 9.223,1.437 c -1.078,0 -2.199,-0.476 -2.66,-1.531 l 1.324,-0.555 c 0.285,0.555 0.809,0.735 1.363,0.735 0.774,0 1.559,-0.465 1.571,-1.286 l 0,-0.105 c -0.27,0.156 -0.848,0.387 -1.559,0.387 -1.426,0 -2.879,-0.785 -2.879,-2.25 0,-1.34 1.168,-2.203 2.481,-2.203 1.004,0 1.558,0.453 1.906,0.98 l 0.051,0 0,-0.773 1.441,0 0,3.836 c 0,1.773 -1.324,2.765 -3.039,2.765 z m -0.18,-5.48 c -0.488,0 -1.168,0.242 -1.168,0.847 0,0.774 0.848,1.071 1.582,1.071 0.657,0 0.965,-0.145 1.364,-0.336 -0.117,-0.926 -0.914,-1.582 -1.778,-1.582 z m 8.469,5.261 -1.715,-4.335 -0.051,0 -1.773,4.335 -1.609,0 2.664,-6.058 -1.52,-3.371 1.559,0 4.105,9.429 -1.66,0 z M 93.547,16 l 1.496,0 0,10 -1.496,0 0,-10 z" fill="#ffffff"></path><g><path d="M 16.348,33.969 C 16.113,33.723 15.977,33.34 15.977,32.844 l 0,-17.692 c 0,-0.496 0.136,-0.879 0.371,-1.125 l 0.058,-0.054 9.914,9.91 0,0.234 -9.914,9.91 -0.058,-0.058 z" fill="#40ceff"></path></g><g><path d="m 29.621,20.578 -3.301,3.305 0,0.234 3.305,3.305 0.074,-0.043 3.914,-2.227 c 1.117,-0.632 1.117,-1.672 0,-2.308 l -3.914,-2.223 -0.078,-0.043 z" fill="#fcca01"></path></g><g><path d="M 29.699,20.621 26.32,24 16.348,14.027 c 0.371,-0.39 0.976,-0.437 1.664,-0.047 l 11.687,6.641" fill="#f53a44"></path></g><g><path d="M 29.699,27.379 18.012,34.02 c -0.688,0.386 -1.293,0.339 -1.664,-0.051 L 26.32,24 l 3.379,3.379 z" fill="#52f075"></path></g><g><g></g><g><g></g><g><g><g><path d="M 0,0 124,0 124,48 0,48 0,0 Z" fill-opacity="0"></path></g></g></g></g></g></g></g></svg></a>< class="downloadBtn" href="https://itunes.apple.com/id/app/tera-for-traveloka-partners/id1320732763?mt=8"><svg stroke-width="0" width="135" height="40"><g><path fill="#010101" d="M130.2,40H4.7C2.1,40,0,37.9,0,35.3V4.7C0,2.1,2.1,0,4.7,0h125.5c2.6,0,4.8,2.1,4.8,4.7v30.5 C135,37.9,132.8,40,130.2,40L130.2,40z"></path><path fill="#010101" d="M134,35.3c0,2.1-1.7,3.8-3.8,3.8H4.7c-2.1,0-3.8-1.7-3.8-3.8V4.7c0-2.1,1.7-3.8,3.8-3.8h125.5 c2.1,0,3.8,1.7,3.8,3.8V35.3L134,35.3z"></path><g><g><path fill="#FFFFFF" d="M30.1,19.8c0-3.2,2.6-4.8,2.8-4.9c-1.5-2.2-3.9-2.5-4.7-2.5c-2-0.2-3.9,1.2-4.9,1.2s-2.6-1.2-4.2-1.1 c-2.1,0-4.1,1.3-5.2,3.2c-2.3,3.9-0.6,9.7,1.6,12.9c1.1,1.6,2.4,3.3,4,3.2s2.2-1,4.2-1c1.9,0,2.5,1,4.2,1s2.8-1.6,3.9-3.1 c1.3-1.8,1.8-3.5,1.8-3.6C33.5,24.9,30.2,23.6,30.1,19.8z"></path><path fill="#FFFFFF" d="M26.9,10.3c0.9-1.1,1.5-2.6,1.3-4.1c-1.3,0.1-2.8,0.9-3.8,1.9c-0.8,0.9-1.5,2.5-1.3,3.9 C24.6,12.2,26,11.4,26.9,10.3z"></path></g></g><g><path fill="#FFFFFF" d="M53.6,31.5h-2.3l-1.2-3.9h-4.3l-1.2,3.9h-2.2l4.3-13.3h2.6L53.6,31.5z M49.8,26l-1.1-3.5 c-0.1-0.4-0.3-1.2-0.7-2.5l0,0c-0.1,0.6-0.3,1.4-0.6,2.5L46.2,26H49.8z"></path><path fill="#FFFFFF" d="M64.7,26.6c0,1.6-0.4,2.9-1.3,3.9c-0.8,0.8-1.8,1.3-2.9,1.3c-1.3,0-2.2-0.5-2.7-1.4l0,0v5.1h-2.1V25.1 c0-1,0-2.1-0.1-3.2h1.9l0.1,1.5l0,0c0.7-1.1,1.8-1.7,3.2-1.7c1.1,0,2.1,0.4,2.8,1.3C64.3,23.9,64.7,25.1,64.7,26.6z M62.5,26.7 c0-0.9-0.2-1.7-0.6-2.3c-0.5-0.6-1.1-0.9-1.9-0.9c-0.5,0-1,0.2-1.4,0.5c-0.4,0.4-0.7,0.8-0.8,1.4c-0.1,0.3-0.1,0.5-0.1,0.7v1.6 c0,0.7,0.2,1.3,0.6,1.8s1,0.7,1.7,0.7c0.8,0,1.4-0.3,1.9-0.9C62.3,28.5,62.5,27.7,62.5,26.7z"></path><path fill="#FFFFFF" d="M75.7,26.6c0,1.6-0.4,2.9-1.3,3.9c-0.8,0.8-1.8,1.3-2.9,1.3c-1.3,0-2.2-0.5-2.7-1.4l0,0v5.1h-2.1V25.1 c0-1,0-2.1-0.1-3.2h1.9l0.1,1.5l0,0c0.7-1.1,1.8-1.7,3.2-1.7c1.1,0,2.1,0.4,2.8,1.3C75.3,23.9,75.7,25.1,75.7,26.6z M73.5,26.7 c0-0.9-0.2-1.7-0.6-2.3c-0.5-0.6-1.1-0.9-1.9-0.9c-0.5,0-1,0.2-1.4,0.5c-0.4,0.4-0.7,0.8-0.8,1.4c-0.1,0.3-0.1,0.5-0.1,0.7v1.6 c0,0.7,0.2,1.3,0.6,1.8s1,0.7,1.7,0.7c0.8,0,1.4-0.3,1.9-0.9C73.3,28.5,73.5,27.7,73.5,26.7z"></path><path fill="#FFFFFF" d="M88,27.8c0,1.1-0.4,2.1-1.2,2.8c-0.9,0.8-2.1,1.2-3.6,1.2c-1.4,0-2.6-0.3-3.4-0.8l0.5-1.8 c0.9,0.6,2,0.8,3.1,0.8c0.8,0,1.4-0.2,1.9-0.5c0.4-0.4,0.7-0.8,0.7-1.5c0-0.5-0.2-1-0.6-1.4s-1-0.7-1.8-1 c-2.3-0.9-3.5-2.1-3.5-3.8c0-1.1,0.4-2,1.2-2.7c0.8-0.7,1.9-1,3.3-1c1.2,0,2.2,0.2,3,0.6l-0.5,1.7c-0.8-0.4-1.6-0.6-2.5-0.6 c-0.8,0-1.3,0.2-1.8,0.6c-0.4,0.3-0.5,0.7-0.5,1.2s0.2,1,0.6,1.3s1,0.7,1.9,1c1.1,0.5,2,1,2.5,1.6C87.8,26.1,88,26.9,88,27.8z"></path><path fill="#FFFFFF" d="M95.1,23.5h-2.3v4.7c0,1.2,0.4,1.8,1.2,1.8c0.4,0,0.7,0,0.9-0.1l0.1,1.6c-0.4,0.2-1,0.2-1.7,0.2 c-0.8,0-1.5-0.3-2-0.8s-0.7-1.4-0.7-2.6v-4.8h-1.4v-1.6h1.4v-1.8l2.1-0.6v2.4H95C95.1,21.9,95.1,23.5,95.1,23.5z"></path><path fill="#FFFFFF" d="M105.7,26.6c0,1.5-0.4,2.7-1.3,3.6c-0.9,1-2.1,1.5-3.5,1.5c-1.4,0-2.5-0.5-3.4-1.4s-1.3-2.1-1.3-3.5 c0-1.5,0.4-2.7,1.3-3.7c0.9-0.9,2-1.4,3.5-1.4c1.4,0,2.5,0.5,3.4,1.4C105.3,24,105.7,25.2,105.7,26.6z M103.5,26.7 c0-0.9-0.2-1.6-0.6-2.3c-0.4-0.8-1.1-1.1-1.9-1.1c-0.9,0-1.5,0.4-2,1.1c-0.4,0.6-0.6,1.4-0.6,2.3c0,0.9,0.2,1.6,0.6,2.3 c0.5,0.8,1.1,1.1,1.9,1.1c0.8,0,1.5-0.4,1.9-1.2C103.3,28.3,103.5,27.6,103.5,26.7z"></path><path fill="#FFFFFF" d="M112.6,23.8c-0.2,0-0.4-0.1-0.7-0.1c-0.8,0-1.3,0.3-1.7,0.9c-0.4,0.5-0.5,1.1-0.5,1.9v5h-2.1v-6.6 c0-1.1,0-2.1-0.1-3h1.9l0.1,1.8h0.1c0.2-0.6,0.6-1.1,1.1-1.5c0.5-0.3,1-0.5,1.5-0.5c0.2,0,0.4,0,0.5,0 C112.6,21.8,112.6,23.8,112.6,23.8z"></path><path fill="#FFFFFF" d="M122.2,26.3c0,0.4,0,0.7-0.1,1h-6.4c0,0.9,0.3,1.7,0.9,2.2c0.5,0.4,1.2,0.7,2.1,0.7c0.9,0,1.8-0.2,2.6-0.5 l0.3,1.5c-0.9,0.4-2,0.6-3.2,0.6c-1.5,0-2.7-0.4-3.5-1.3c-0.8-0.9-1.3-2.1-1.3-3.5s0.4-2.7,1.2-3.6c0.8-1,1.9-1.5,3.4-1.5 c1.4,0,2.4,0.5,3.1,1.5C121.9,24,122.2,25.1,122.2,26.3z M120.1,25.7c0-0.6-0.1-1.2-0.4-1.6c-0.4-0.6-0.9-0.9-1.7-0.9 c-0.7,0-1.3,0.3-1.7,0.9c-0.4,0.5-0.6,1-0.6,1.7L120.1,25.7L120.1,25.7z"></path></g><g><g><path fill="#FFFFFF" d="M49.1,10c0,1.2-0.4,2.1-1.1,2.7c-0.7,0.5-1.6,0.8-2.8,0.8c-0.6,0-1.1,0-1.5-0.1V7 c0.6-0.1,1.2-0.1,1.8-0.1c1.1,0,2,0.2,2.6,0.7C48.7,8.2,49.1,9,49.1,10z M47.9,10c0-0.8-0.2-1.3-0.6-1.8c-0.4-0.4-1-0.6-1.8-0.6 c-0.3,0-0.6,0-0.8,0.1v4.9c0.1,0,0.4,0,0.7,0c0.8,0,1.4-0.2,1.9-0.7C47.7,11.5,47.9,10.9,47.9,10z"></path><path fill="#FFFFFF" d="M54.9,11c0,0.7-0.2,1.3-0.6,1.8s-1,0.7-1.7,0.7s-1.2-0.2-1.7-0.7c-0.4-0.5-0.6-1-0.6-1.7s0.2-1.3,0.6-1.8 s1-0.7,1.7-0.7s1.2,0.2,1.7,0.7C54.7,9.8,54.9,10.3,54.9,11z M53.8,11.1c0-0.4-0.1-0.8-0.3-1.1c-0.2-0.4-0.5-0.6-0.9-0.6 s-0.7,0.2-1,0.6c-0.2,0.3-0.3,0.7-0.3,1.1c0,0.4,0.1,0.8,0.3,1.1c0.2,0.4,0.5,0.6,1,0.6c0.4,0,0.7-0.2,0.9-0.6 C53.7,11.9,53.8,11.5,53.8,11.1z"></path><path fill="#FFFFFF" d="M62.8,8.7l-1.5,4.7h-1l-0.6-2c-0.2-0.5-0.3-1-0.4-1.5l0,0c-0.1,0.5-0.2,1-0.4,1.5l-0.6,2h-1l-1.4-4.7H57 l0.5,2.2c0.1,0.5,0.2,1,0.3,1.5l0,0c0.1-0.4,0.2-0.9,0.4-1.5l0.7-2.2h0.9l0.6,2.2c0.2,0.5,0.3,1.1,0.4,1.6l0,0 c0.1-0.5,0.2-1,0.3-1.6l0.6-2.2L62.8,8.7L62.8,8.7z"></path><path fill="#FFFFFF" d="M68.2,13.4h-1v-2.7c0-0.8-0.3-1.2-0.9-1.2c-0.3,0-0.6,0.1-0.8,0.3c-0.2,0.2-0.3,0.5-0.3,0.8v2.8h-1V10 c0-0.4,0-0.9,0-1.3H65v0.7l0,0c0.1-0.2,0.3-0.4,0.5-0.6c0.3-0.2,0.6-0.3,0.9-0.3c0.4,0,0.8,0.1,1.1,0.4c0.4,0.3,0.5,0.9,0.5,1.6 v2.9H68.2z"></path><path fill="#FFFFFF" d="M71.1,13.4h-1V6.5h1V13.4z"></path><path fill="#FFFFFF" d="M77.3,11c0,0.7-0.2,1.3-0.6,1.8s-1,0.7-1.7,0.7s-1.2-0.2-1.7-0.7c-0.4-0.5-0.6-1-0.6-1.7s0.2-1.3,0.6-1.8 s1-0.7,1.7-0.7s1.2,0.2,1.7,0.7C77.1,9.8,77.3,10.3,77.3,11z M76.2,11.1c0-0.4-0.1-0.8-0.3-1.1c-0.2-0.4-0.5-0.6-0.9-0.6 s-0.7,0.2-1,0.6c-0.2,0.3-0.3,0.7-0.3,1.1c0,0.4,0.1,0.8,0.3,1.1c0.2,0.4,0.5,0.6,1,0.6c0.4,0,0.7-0.2,0.9-0.6 C76.1,11.9,76.2,11.5,76.2,11.1z"></path><path fill="#FFFFFF" d="M82.3,13.4h-0.9l-0.1-0.5l0,0c-0.3,0.4-0.8,0.7-1.4,0.7c-0.4,0-0.8-0.1-1.1-0.4c-0.2-0.3-0.4-0.6-0.4-1 c0-0.6,0.2-1,0.7-1.3s1.2-0.5,2-0.4v-0.1c0-0.6-0.3-0.9-1-0.9c-0.5,0-0.9,0.1-1.2,0.3l-0.2-0.7c0.4-0.3,1-0.4,1.6-0.4 c1.2,0,1.8,0.6,1.8,2v1.7C82.3,12.8,82.3,13.2,82.3,13.4z M81.2,11.8v-0.7c-1.2,0-1.7,0.3-1.7,1c0,0.2,0.1,0.4,0.2,0.6 c0.1,0.1,0.3,0.2,0.5,0.2s0.4-0.1,0.6-0.2c0.2-0.1,0.3-0.3,0.4-0.6C81.2,11.9,81.2,11.9,81.2,11.8z"></path><path fill="#FFFFFF" d="M88.3,13.4h-0.9v-0.8l0,0c-0.3,0.6-0.8,0.9-1.5,0.9c-0.6,0-1-0.2-1.4-0.7c-0.4-0.4-0.6-1-0.6-1.7 c0-0.8,0.2-1.4,0.6-1.9c0.4-0.4,0.9-0.7,1.5-0.7s1.1,0.2,1.3,0.6l0,0V6.4h1V12C88.2,12.6,88.3,13,88.3,13.4z M87.2,11.4v-0.8 c0-0.1,0-0.2,0-0.3C87.1,10,87,9.8,86.8,9.7c-0.2-0.2-0.4-0.3-0.7-0.3c-0.4,0-0.7,0.2-0.9,0.5c-0.2,0.3-0.3,0.7-0.3,1.2 c0,0.5,0.1,0.8,0.3,1.1c0.2,0.3,0.5,0.5,0.9,0.5c0.3,0,0.6-0.1,0.8-0.4C87.1,12.1,87.2,11.8,87.2,11.4z"></path><path fill="#FFFFFF" d="M97.2,11c0,0.7-0.2,1.3-0.6,1.8s-1,0.7-1.7,0.7s-1.2-0.2-1.7-0.7c-0.4-0.5-0.6-1-0.6-1.7s0.2-1.3,0.6-1.8 s1-0.7,1.7-0.7s1.2,0.2,1.7,0.7C97,9.8,97.2,10.3,97.2,11z M96.2,11.1c0-0.4-0.1-0.8-0.3-1.1c-0.2-0.4-0.5-0.6-0.9-0.6 s-0.7,0.2-1,0.6c-0.2,0.3-0.3,0.7-0.3,1.1c0,0.4,0.1,0.8,0.3,1.1c0.2,0.4,0.5,0.6,1,0.6c0.4,0,0.7-0.2,0.9-0.6 C96.1,11.9,96.2,11.5,96.2,11.1z"></path><path fill="#FFFFFF" d="M102.9,13.4h-1v-2.7c0-0.8-0.3-1.2-1-1.2c-0.3,0-0.6,0.1-0.8,0.3s-0.3,0.5-0.3,0.8v2.8h-1V10 c0-0.4,0-0.9,0-1.3h0.9v0.7l0,0c0.1-0.2,0.3-0.4,0.5-0.6c0.3-0.2,0.6-0.3,1-0.3s0.8,0.1,1.1,0.4c0.4,0.3,0.5,0.9,0.5,1.6v2.9 H102.9z"></path><path fill="#FFFFFF" d="M109.9,9.5h-1.2v2.3c0,0.6,0.2,0.9,0.6,0.9c0.2,0,0.3,0,0.5,0v0.8c-0.2,0.1-0.5,0.1-0.8,0.1 c-0.4,0-0.7-0.1-1-0.4c-0.2-0.3-0.4-0.7-0.4-1.3V9.5h-0.7V8.7h0.7V7.8l1-0.3v1.2h1.2L109.9,9.5L109.9,9.5z"></path><path fill="#FFFFFF" d="M115.5,13.4h-1v-2.7c0-0.8-0.3-1.3-0.9-1.3c-0.5,0-0.8,0.2-1,0.7c0,0.1,0,0.2,0,0.4v2.8h-1V6.4h1v2.8l0,0 c0.3-0.5,0.8-0.8,1.4-0.8c0.4,0,0.8,0.1,1.1,0.4c0.4,0.4,0.5,0.9,0.5,1.6C115.5,10.6,115.5,13.4,115.5,13.4z"></path><path fill="#FFFFFF" d="M121.2,10.9c0,0.2,0,0.3,0,0.5H118c0,0.5,0.2,0.8,0.5,1.1c0.3,0.2,0.6,0.3,1,0.3c0.5,0,0.9-0.1,1.3-0.2 l0.2,0.7c-0.4,0.2-1,0.3-1.6,0.3c-0.7,0-1.3-0.2-1.7-0.6c-0.4-0.4-0.6-1-0.6-1.7s0.2-1.3,0.6-1.8c0.4-0.5,1-0.8,1.6-0.8 c0.7,0,1.2,0.3,1.5,0.8C121.1,9.8,121.2,10.3,121.2,10.9z M120.2,10.6c0-0.3-0.1-0.6-0.2-0.8c-0.2-0.3-0.5-0.4-0.8-0.4 s-0.6,0.1-0.8,0.4c-0.2,0.2-0.3,0.5-0.3,0.8C118,10.6,120.2,10.6,120.2,10.6z"></path></g></g></g></svg>